<svg width="104" height="36" viewBox="0 0 104 36" fill="none" xmlns="http://www.w3.org/2000/svg">
<g clip-path="url(#clip0_2133_48)">
<path d="M-0.10891 0.323065H6.91953C10.831 0.323065 12.8742 2.35076 12.8742 4.83999C12.8742 6.55999 11.9078 7.72614 10.5672 8.3446V8.38768C12.2821 9.00614 13.2485 10.3692 13.2485 12.1108C13.2485 14.6 11.3372 16.7815 7.20791 16.7815H-0.10891V0.323065ZM6.70171 6.84614C7.86749 6.84614 8.39209 6.2523 8.39209 5.59076C8.39209 4.92922 7.86442 4.31383 6.70171 4.31383H4.63705V6.84614H6.70171ZM6.76614 12.7938C7.99634 12.7938 8.58844 12.2 8.58844 11.4277C8.58844 10.6554 7.97487 10.0615 6.78761 10.0615H4.63398V12.7938H6.76614ZM14.2578 10.0831V0.323065H19.0467V10.04C19.0467 11.8677 19.9487 12.8369 21.4857 12.8369C23.0227 12.8369 23.989 11.8677 23.989 10.0154V0.319988H28.7994V10.08C28.7994 14.2215 26.0322 17.1969 21.4826 17.1969C16.933 17.1969 14.2547 14.2215 14.2547 10.08L14.2578 10.0831ZM40.9941 1.11691V5.34768C39.9602 4.62153 38.2054 4.11383 36.7758 4.11383C35.4781 4.11383 34.8216 4.5323 34.8216 5.08307C34.8216 5.63383 35.5456 5.91999 36.8433 6.38153C39.0399 7.15383 42.028 8.18768 42.028 11.6923C42.028 14.8215 39.678 17.1354 35.5487 17.1354C33.4165 17.1354 31.4623 16.52 30.2536 15.7046V11.2554C31.4408 12.2246 33.2417 12.9969 34.9781 12.9969C36.4506 12.9969 37.1317 12.4461 37.1317 11.8277C37.1317 11.0338 36.0119 10.6831 34.6713 10.1969C32.9134 9.55691 30.1247 8.4123 30.1247 5.21845C30.1247 2.3323 32.3888 -0.0246277 36.4291 -0.0246277C38.2085 -0.0246277 39.813 0.436911 40.9972 1.11999H40.9941V1.11691ZM43.2551 0.323065H48.044V16.7815H43.2551V0.323065ZM65.0706 16.7815H60.5025L54.5939 7.9446H54.5724V16.7815H50.0258V0.323065H54.5939L60.5025 9.00307H60.524V0.323065H65.0706V16.7815ZM67.0463 0.323065H78.382V4.59691H71.8352V6.57845H77.7224V10.4554H71.8352V12.5046H78.382V16.7785H67.0463V0.319988V0.323065ZM90.3987 1.11691V5.34768C89.3648 4.62153 87.61 4.11383 86.1804 4.11383C84.8858 4.11383 84.2262 4.5323 84.2262 5.08307C84.2262 5.63383 84.9502 5.91999 86.2479 6.38153C88.4445 7.15383 91.4326 8.18768 91.4326 11.6923C91.4326 14.8215 89.0826 17.1354 84.9533 17.1354C82.8211 17.1354 80.8669 16.52 79.6582 15.7046V11.2554C80.8454 12.2246 82.6463 12.9969 84.3827 12.9969C85.8552 12.9969 86.5363 12.4461 86.5363 11.8277C86.5363 11.0338 85.4165 10.6831 84.0759 10.1969C82.318 9.55691 79.5293 8.4123 79.5293 5.21845C79.5293 2.3323 81.7934 -0.0246277 85.8338 -0.0246277C87.6131 -0.0246277 89.2176 0.436911 90.4018 1.11999L90.3987 1.11691ZM103.075 1.11691V5.34768C102.041 4.62153 100.286 4.11383 98.8568 4.11383C97.5621 4.11383 96.9025 4.5323 96.9025 5.08307C96.9025 5.63383 97.6266 5.91999 98.9243 6.38153C101.121 7.15383 104.109 8.18768 104.109 11.6923C104.109 14.8215 101.759 17.1354 97.6296 17.1354C95.4975 17.1354 93.5433 16.52 92.3345 15.7046V11.2554C93.5218 12.2246 95.3226 12.9969 97.059 12.9969C98.5316 12.9969 99.2126 12.4461 99.2126 11.8277C99.2126 11.0338 98.0929 10.6831 96.7522 10.1969C94.9943 9.55691 92.2057 8.4123 92.2057 5.21845C92.2057 2.3323 94.4697 -0.0246277 98.5101 -0.0246277C100.289 -0.0246277 101.894 0.436911 103.078 1.11999L103.075 1.11691ZM10.4046 35.6154H15.1935V19.1569H10.4046V35.6154ZM32.2201 19.1569H27.6735V27.8369H27.652L21.7434 19.1569H17.1753V35.6154H21.7219V26.7785H21.7434L27.652 35.6154H32.2201V19.1569ZM39.9296 18.8031C35.8861 18.8031 33.6251 21.16 33.6251 24.0461C33.6251 27.24 36.4138 28.3877 38.1717 29.0246C39.5123 29.5108 40.6321 29.8615 40.6321 30.6554C40.6321 31.2738 39.951 31.8246 38.4785 31.8246C36.7421 31.8246 34.9412 31.0523 33.754 30.0831V34.5323C34.9627 35.3477 36.9169 35.9631 39.0491 35.9631C43.1784 35.9631 45.5284 33.6492 45.5284 30.52C45.5284 27.0154 42.5403 25.9815 40.3437 25.2092C39.0491 24.7477 38.322 24.4831 38.322 23.9077C38.322 23.3323 38.9816 22.9384 40.2762 22.9384C41.7028 22.9384 43.4607 23.4461 44.4945 24.1723V19.9415C43.3073 19.2584 41.7058 18.7969 39.9265 18.7969V18.8031H39.9296ZM46.6481 35.6154H51.4371V19.1569H46.6481V35.6154ZM58.2017 31.2738H59.1251C61.607 31.2738 63.2114 29.8646 63.2114 27.3969C63.2114 24.9292 61.607 23.4984 59.1251 23.4984H58.2017V31.2769V31.2738ZM68.0433 27.3969C68.0433 32.3538 64.3097 35.6154 58.9471 35.6154H53.4128V19.1569H58.9471C64.3067 19.1569 68.0433 22.44 68.0433 27.3969ZM69.341 35.6154H80.6767V31.3415H74.1299V29.2923H80.0171V25.4154H74.1299V23.4338H80.6767V19.16H69.341V35.6185V35.6154ZM88.2144 26.9354C89.4231 26.9354 90.368 26.3631 90.368 25.2154C90.368 24.0677 89.4231 23.4954 88.1929 23.4954H87.1836V26.9323H88.2175L88.2144 26.9354ZM96.0558 35.6154H90.411L87.291 30.5261H87.1805V35.6154H82.3916V19.1569H88.2359C92.3437 19.1569 95.1999 20.9846 95.1999 24.8861C95.1999 26.4277 94.5188 28.6769 91.7946 29.8215L96.0558 35.6154Z" fill="black"/>
</g>
<defs>
<clipPath id="clip0_2133_48">
<rect width="104" height="36" fill="white"/>
</clipPath>
</defs>
</svg>
