<svg width="172" height="32" viewBox="0 0 172 32" fill="none" xmlns="http://www.w3.org/2000/svg">
<path fill-rule="evenodd" clip-rule="evenodd" d="M81.5367 10.7775C81.5367 13.6256 81.1461 22.5768 81.1461 22.5768C81.1461 24.2856 81.8297 25.0994 83.7826 25.0994V25.8317H76.166V25.0994C78.119 25.0994 79.1931 24.367 79.1931 22.5768L79.8767 8.01082C79.2908 6.87158 78.7049 6.46471 77.2402 6.38334V5.65097H83.0991L89.3486 19.2404L95.6958 5.65097H100.969V6.30197C99.5041 6.30197 98.6253 6.87158 98.6253 8.25494L99.3088 22.3327C99.3088 24.4484 99.7971 25.018 101.848 25.018V25.7504H92.9616V25.018C94.7193 25.018 95.5005 24.5297 95.4028 22.3327C95.4028 22.3327 95.0123 12.4864 94.9146 10.6962L90.6181 20.461C90.0322 21.6817 89.4463 23.1464 89.0557 24.6925L87.6886 24.7739C87.298 23.716 86.4192 21.763 86.4192 21.763C86.4192 21.763 82.8062 13.5443 81.5367 10.7775Z" fill="black"/>
<path fill-rule="evenodd" clip-rule="evenodd" d="M74.3107 25.9131C73.8225 25.8318 73.4319 25.8318 72.9436 25.8318C72.0648 25.8318 70.4048 26.2386 68.4518 26.2386C60.9328 26.2386 55.4645 22.4954 55.4645 15.5786C55.4645 9.71971 60.6399 5.24414 68.5494 5.24414C70.4048 5.24414 72.4554 5.56964 74.2131 6.13926C74.6037 5.81376 74.7013 5.65101 74.9943 5.40689H75.6778C75.5802 6.46475 75.0919 9.88246 75.0919 9.88246H74.4084C73.9201 7.84811 72.6507 6.54613 68.6471 6.54613C63.8623 6.54613 59.4681 9.71971 59.4681 15.5786C59.4681 22.1699 63.9599 25.0994 68.94 25.0994C72.1624 25.0994 74.1154 23.5533 75.3849 21.6817L76.166 22.0072L74.3107 25.9131Z" fill="black"/>
<path fill-rule="evenodd" clip-rule="evenodd" d="M52.535 9.39421H51.7538C51.6562 7.60398 50.9726 7.03436 49.215 7.03436H45.8949V22.0886C45.8949 24.6112 46.4808 25.0994 48.4338 25.0994V25.8318H39.8407V25.0994C41.7937 25.0994 42.3796 24.6112 42.3796 22.0072V7.03436H39.0595C36.9112 7.03436 36.5206 7.5226 35.9347 9.39421H35.1535L35.7394 5.08138L36.3253 5.16275C36.5206 5.651 37.0089 5.651 38.376 5.651H49.5079C51.5585 5.651 52.0468 5.651 52.535 5.08138H53.2186L52.535 9.39421Z" fill="black"/>
<path fill-rule="evenodd" clip-rule="evenodd" d="M28.2205 26.32C26.6581 26.32 25.3887 26.1573 24.4122 25.8318C23.5334 25.669 22.8498 25.3435 22.4592 25.1808C21.971 25.5877 21.678 26.0759 21.678 26.0759L20.9945 25.9131L21.4827 21.2748L22.2639 21.3562C22.7522 23.4719 24.4122 25.018 28.0252 25.018C30.7594 25.018 32.6147 23.0651 32.6147 21.0307C32.6147 19.3219 31.8335 18.4267 29.0017 16.7179C28.1229 16.2296 27.244 15.8228 26.5605 15.4159C24.0216 14.1139 22.4592 12.5678 22.4592 10.0452C22.4592 7.19712 25.291 5.24414 29.0993 5.24414C31.2476 5.24414 32.7124 5.81376 33.1029 5.97651L33.8841 5.24414L34.47 5.32552L33.8841 9.47559L33.2006 9.31284C33.2006 7.35987 31.8335 6.54613 29.4899 6.54613C27.3417 6.54613 25.6816 7.52262 25.6816 9.31284C25.6816 10.9403 27.1464 11.9982 28.904 12.9747C29.7829 13.4629 30.4664 13.8698 31.2476 14.1953C35.2512 16.5551 36.2277 18.1012 36.2277 20.4611C36.2277 23.7974 33.1029 26.32 28.2205 26.32Z" fill="black"/>
<path fill-rule="evenodd" clip-rule="evenodd" d="M15.0379 9.3942H14.1591C14.1591 7.68534 13.2802 7.03435 11.4249 7.03435H6.24952V14.6021H9.56958C11.3273 14.6021 11.6202 13.8698 11.9132 12.5678H12.6943V17.9385H11.9132C11.7179 16.4737 11.3273 15.9041 9.47193 15.9041H6.24952V22.3327C6.24952 24.6925 6.93306 25.018 8.78839 25.018V25.7504H0V25.018C2.14827 25.018 2.53887 24.5298 2.53887 22.3327V8.25496C2.53887 6.95298 1.85533 6.30198 0 6.30198V5.65099H12.0108C14.0614 5.65099 14.5497 5.56962 14.8426 5H15.6238L15.0379 9.3942Z" fill="black"/>
<path fill-rule="evenodd" clip-rule="evenodd" d="M139.149 10.5334V22.0885C139.149 24.6111 139.833 25.0994 141.688 25.0994V25.8317H128.115V25.0994C129.189 25.0994 130.068 24.7739 130.068 24.2043C130.068 23.7974 129.97 23.1464 129.678 22.4954L128.603 19.7287H121.084C120.987 20.1356 119.62 23.3091 119.62 24.1229C119.62 24.8552 120.694 25.0994 121.377 25.0994V25.8317H115.03V25.0994C116.202 25.0994 117.081 25.018 117.862 22.9836L123.721 7.35983C123.33 6.70884 122.94 6.46471 122.159 6.38334V5.65097H127.334L133.583 22.0072C134.169 23.716 134.755 24.6111 135.634 25.018C137.001 24.6111 137.392 24.2856 137.392 22.0072V8.25494C136.318 7.11571 136.22 6.30197 134.267 6.30197V5.65097H140.126L149.793 19.3218V8.90593C149.793 6.79021 149.207 6.30197 147.254 6.30197V5.65097H160.144V6.30197C159.363 6.30197 158.679 6.62746 158.679 7.27845C158.679 7.7667 158.875 8.25494 159.167 8.82456L162.878 15.4159L166.491 8.98731C167.077 8.09219 167.175 7.68532 167.175 7.19708C167.175 6.62746 166.686 6.30197 165.71 6.30197V5.65097H171.764V6.30197C170.299 6.30197 169.323 7.4412 168.639 8.82456L163.952 16.8806V22.1699C163.952 24.4484 164.636 25.018 166.491 25.018V25.7504H157.703V25.018C159.558 25.018 160.242 24.4484 160.242 22.1699V17.6943L155.164 8.74319C154.285 7.03433 153.894 6.62746 153.309 6.38334C152.137 6.79021 151.844 7.4412 151.844 8.98731V23.716C151.844 23.716 151.941 24.8552 152.039 26.2386L150.574 26.32L139.149 10.5334ZM124.795 9.6383L121.573 18.3453H128.213L124.795 9.6383Z" fill="black"/>
<path fill-rule="evenodd" clip-rule="evenodd" d="M110.538 18.3453C110.538 18.3453 109.464 18.3453 108.781 18.3453V22.4954C108.781 24.6111 109.464 25.0994 111.417 25.0994V25.8317H102.531V25.0994C104.387 25.0994 105.07 24.5297 105.07 22.414V8.82456C105.07 6.70884 104.387 6.30197 102.531 6.30197V5.65097H109.171C115.616 5.65097 119.424 7.27845 119.424 11.6727C119.522 16.311 114.933 18.3453 110.538 18.3453ZM109.367 7.03433H108.781V16.8806H109.855C113.663 16.8806 115.616 15.4159 115.616 11.8354C115.616 8.17357 113.858 7.03433 109.367 7.03433Z" fill="black"/>
<path fill-rule="evenodd" clip-rule="evenodd" d="M70.4048 21.9258C66.0106 21.9258 63.0811 19.3218 63.0811 15.5786C63.0811 11.9982 66.2059 9.23144 70.4048 9.23144C74.5061 9.23144 77.6308 11.9168 77.6308 15.5786C77.6308 19.1591 74.4084 21.9258 70.4048 21.9258ZM70.4048 10.452C67.3777 10.452 66.4012 12.8933 66.4012 15.66C66.4012 18.264 67.28 20.8679 70.4048 20.8679C73.4319 20.8679 74.3108 18.264 74.3108 15.5786C74.3108 12.9746 73.139 10.452 70.4048 10.452Z" fill="black"/>
<path fill-rule="evenodd" clip-rule="evenodd" d="M19.8227 20.7866V20.1356C20.9945 20.1356 21.1898 19.8101 21.1898 19.566C21.1898 19.1591 21.0922 18.915 20.9945 18.5895C20.9945 18.5895 20.7992 17.8571 20.5063 17.2875H16.0144L15.5262 18.5081C15.4285 18.8336 15.3309 19.0777 15.3309 19.4846C15.3309 19.8915 15.8191 20.1356 16.5027 20.1356V20.7866H12.0108V20.1356C13.1826 20.1356 13.5732 19.8101 14.0614 18.8336L17.4791 10.208C17.3815 9.80109 16.9909 9.55697 16.3074 9.55697V8.8246H20.018C23.0451 16.1483 23.8263 18.0199 23.8263 18.0199C24.4122 19.6473 24.9981 20.1356 25.8769 20.1356V20.7866H19.8227ZM18.1627 11.5099L16.405 16.2296H20.018L18.1627 11.5099Z" fill="black"/>
</svg>
