<svg width="94" height="32" viewBox="0 0 94 32" fill="none" xmlns="http://www.w3.org/2000/svg">
<g clip-path="url(#clip0_2008_1798)">
<path fill-rule="evenodd" clip-rule="evenodd" d="M57.1298 10.5106C55.6519 10.5106 54.4818 10.8148 53.3118 11.4841C53.3118 8.13757 53.3118 5.03439 53.435 4L46.2302 5.27778V5.88624L46.9692 6.00794C47.9544 6.19048 48.2623 6.7381 48.4471 8.01587C48.6318 10.5714 48.5702 24.0185 48.4471 26.2698C50.356 26.6958 52.3882 27 54.4203 27C60.0856 27 63.4724 23.5317 63.4724 18.0556C63.534 13.6746 60.7629 10.5106 57.1298 10.5106ZM54.6666 25.7831C54.2355 25.7831 53.6813 25.7831 53.3734 25.6614C53.2503 24.2011 53.1887 17.9947 53.2503 12.5185C53.8661 12.336 54.2971 12.2143 54.8513 12.2143C57.1913 12.2143 58.4845 14.9524 58.4845 18.2989C58.4845 22.5582 56.8834 25.7831 54.6666 25.7831Z" fill="black"/>
<path fill-rule="evenodd" clip-rule="evenodd" d="M19.3817 4.42582H0.599976V5.39937L1.64682 5.52106C3.06315 5.7036 3.55578 6.55545 3.8021 8.56339C4.11 12.3359 3.98684 19.2115 3.8021 22.4972C3.61736 24.5052 3.06315 25.4179 1.64682 25.5396L0.599976 25.7221V26.574H12.6695V25.7221L11.3764 25.5396C9.96003 25.4179 9.46739 24.5052 9.22108 22.4972C9.09792 21.0978 9.03634 18.9073 9.03634 16.1692L11.6227 16.2909C13.2237 16.2909 13.9627 17.5687 14.2706 19.3332H15.2558V11.7883H14.2706C13.9627 13.5528 13.2237 14.8306 11.6227 14.8306L9.03634 14.9523C9.03634 11.3623 9.1595 8.01577 9.22108 6.00783H12.9774C15.8716 6.00783 17.3495 7.77238 18.3964 10.9364L19.4432 10.6322L19.3817 4.42582Z" fill="black"/>
<path fill-rule="evenodd" clip-rule="evenodd" d="M25.4164 10.3281C30.7738 10.3281 33.4217 13.918 33.4217 18.6641C33.4217 23.1667 30.4659 27 25.1085 27C19.7511 27 17.1032 23.4101 17.1032 18.6641C17.1032 14.1006 20.1206 10.3281 25.4164 10.3281ZM25.1085 11.3625C22.7685 11.3625 22.1527 14.5265 22.1527 18.6032C22.1527 22.6191 23.1996 25.844 25.3549 25.844C27.818 25.844 28.4338 22.6799 28.4338 18.6032C28.4338 14.6482 27.387 11.3625 25.1085 11.3625Z" fill="black"/>
<path fill-rule="evenodd" clip-rule="evenodd" d="M64.8888 18.725C64.8888 14.4048 67.6598 10.2673 73.0788 10.2673C77.5741 10.2673 79.6678 13.553 79.6678 17.8731H69.7535C69.6304 21.7673 71.5393 24.6271 75.4188 24.6271C77.143 24.6271 78.0051 24.2011 79.052 23.471L79.4831 24.0186C78.4362 25.4789 76.0962 26.9392 73.0788 26.9392C68.3372 27.0001 64.8888 23.5927 64.8888 18.725ZM69.8151 16.7779L74.803 16.6562C74.803 14.5265 74.4951 11.3625 72.6478 11.3625C70.862 11.3625 69.9383 14.344 69.8151 16.7779Z" fill="black"/>
<path fill-rule="evenodd" clip-rule="evenodd" d="M92.4147 11.1799C91.1215 10.6323 89.4589 10.3281 87.4884 10.3281C83.5473 10.3281 81.0841 12.6403 81.0841 15.3783C81.0841 18.1164 82.8699 19.2725 85.4562 20.1244C88.1041 21.0979 88.8431 21.8281 88.8431 23.045C88.8431 24.3228 87.8578 25.4789 86.1952 25.4789C84.1631 25.4789 82.6852 24.3228 81.5152 21.1588L80.7762 21.3413L80.8994 25.9656C82.1925 26.5133 84.5325 26.9392 86.5647 26.9392C90.7521 26.9392 93.4 24.8096 93.4 21.5847C93.4 19.3942 92.23 18.1164 89.4589 17.0821C86.5031 15.926 85.3947 15.1958 85.3947 13.7963C85.3947 12.3969 86.3799 11.4842 87.6115 11.4842C89.5205 11.4842 90.8136 12.6403 91.7989 15.5L92.5379 15.3175L92.4147 11.1799Z" fill="black"/>
<path fill-rule="evenodd" clip-rule="evenodd" d="M47.2771 10.7541C45.4913 9.71969 42.2892 10.2065 40.5649 14.0398L40.6881 10.3282L33.5449 11.7276V12.3361L34.2839 12.4578C35.2691 12.5795 35.7002 13.0662 35.7618 14.4657C35.9465 17.0213 35.8849 21.4022 35.7618 23.6535C35.6386 24.9313 35.2075 25.5398 34.2839 25.6615L33.5449 25.7832V26.635H43.4592V25.7832L42.166 25.6615C41.1192 25.5398 40.7497 24.9313 40.6881 23.6535C40.5034 21.6456 40.5034 17.6297 40.5649 15.135C41.1192 14.4049 43.4592 13.7356 45.5529 15.135L47.2771 10.7541Z" fill="black"/>
</g>
<defs>
<clipPath id="clip0_2008_1798">
<rect width="92.8" height="32" fill="white" transform="translate(0.599976)"/>
</clipPath>
</defs>
</svg>
