<svg width="178" height="24" viewBox="0 0 178 24" fill="none" xmlns="http://www.w3.org/2000/svg">
<path d="M155.738 22.122H164.015V22.0584L162.842 21.3899C161.478 20.5942 161.478 20.0531 161.478 17.6658V11.4907L169.501 19.8621C171.562 21.9629 173.021 22.5995 174.924 22.5995C176.003 22.6005 177.059 22.2912 177.968 21.7082V21.6446C176.319 21.3899 174.512 20.4668 172.704 18.6207L164.078 9.93104L171.753 3.24668C172.839 2.30867 174.057 1.53645 175.368 0.954907L176.383 0.445623V0.381963H169.089V0.445623L169.723 1.0504C170.484 1.75066 170.611 2.22812 169.818 2.92838L161.446 10.3448V4.8382C161.446 2.45093 161.446 1.90981 162.81 1.11406L163.983 0.445623V0.381963H155.738V0.445623L156.911 1.11406C158.275 1.90981 158.275 2.45093 158.275 4.8382V17.6658C158.275 20.0531 158.275 20.5942 156.911 21.3899L155.706 22.0584L155.738 22.122ZM132.683 0.445623L133.888 1.11406C135.22 1.90981 135.22 2.45093 135.22 4.8382V19.3846C135.22 20.7215 135.03 20.9761 134.142 21.4536L133.001 22.0902V22.1538H144.734C145.529 22.1228 146.325 22.1654 147.112 22.2812L147.588 16.8064H147.525L146.51 18.2069C145.178 20.0531 144.449 20.5305 141.658 20.5305C140.576 20.5549 139.495 20.491 138.423 20.3395V4.8382C138.423 2.45093 138.423 1.90981 139.755 1.11406L140.96 0.445623V0.381963H132.683V0.445623ZM104.777 10.9178C104.777 5.53846 108.17 1.65517 113.339 1.65517C118.223 1.65517 121.838 5.95225 121.838 11.5862C121.838 16.9655 118.508 20.8488 113.339 20.8488C108.455 20.8488 104.777 16.5836 104.777 10.9178ZM101.352 11.5544C101.352 17.634 106.997 22.504 113.339 22.504C119.681 22.504 125.326 17.4111 125.326 10.9496C125.326 4.87003 119.681 0 113.339 0C106.997 0 101.352 5.09284 101.352 11.5544ZM79.5974 22.122H88.5085V22.0584L87.3034 21.4218C85.4324 20.435 85.3373 19.8621 85.3373 17.6021V11.3634H88.8573C90.3478 11.3634 91.204 11.5862 91.6162 12.2546L91.9968 12.8276H92.0602L92.5359 7.95756H92.4725L91.9334 8.62599C91.3625 9.38992 90.6966 9.77188 89.1744 9.77188H85.369V2.13263L88.7304 1.97347C90.8234 1.87798 91.4577 2.22812 92.2188 3.72414L92.853 5.06101H92.9482L93.4238 0.222812C92.5832 0.33818 91.7353 0.391373 90.8869 0.381963H79.6291V0.445623L80.8341 1.11406C82.1978 1.90981 82.1978 2.45093 82.1978 4.8382V17.6658C82.1978 20.0531 82.1978 20.5942 80.8341 21.3899L79.6291 22.0584L79.5974 22.122ZM46.9022 22.122H54.418V22.0584L52.9909 21.2308C51.7541 20.4987 51.659 19.8939 51.659 18.1114V6.46154L67.6419 22.4403H67.7053V4.39257C67.7053 2.61008 67.8005 2.06897 69.0372 1.30504L70.5277 0.445623V0.381963H62.9168V0.445623L64.4073 1.30504C65.6758 2.06897 65.7709 2.61008 65.7709 4.39257V16.0424L49.8514 0.0636605H49.788V18.1114C49.788 19.8939 49.6929 20.435 48.4244 21.1989L46.9339 22.0584L46.9022 22.122ZM29.302 22.122H37.5788V22.0584L36.3738 21.3899C35.0102 20.5942 35.0102 20.0531 35.0102 17.6658V4.8382C35.0102 2.45093 35.0102 1.90981 36.3738 1.11406L37.5788 0.445623V0.381963H29.3337V0.445623L30.5387 1.11406C31.8707 1.90981 31.8707 2.45093 31.8707 4.8382V17.6658C31.8707 20.0531 31.8707 20.5942 30.5387 21.3899L29.3337 22.0584L29.302 22.122ZM0 22.122H8.27686V22.0584L7.0718 21.3899C5.73989 20.5942 5.73989 20.0531 5.73989 17.6658V11.4907L13.7631 19.8621C15.856 21.9629 17.2831 22.5995 19.1858 22.5995C20.2649 22.6023 21.3218 22.2928 22.2302 21.7082V21.6446C20.5812 21.3899 18.7736 20.4668 16.9343 18.6207L8.37199 9.93104L15.9829 3.24668C17.0294 2.29178 18.0125 1.75066 19.6615 0.923077L20.6763 0.445623V0.381963H13.3825V0.445623L14.0167 1.01857C14.7778 1.75066 14.9047 2.19629 14.1119 2.92838L5.70818 10.313V4.8382C5.70818 2.45093 5.70818 1.90981 7.04009 1.11406L8.24514 0.445623V0.381963H0V0.445623L1.20506 1.11406C2.53697 1.90981 2.53697 2.45093 2.53697 4.8382V17.6658C2.53697 20.0531 2.53697 20.5942 1.17335 21.3899L0 22.0584V22.122Z" fill="black"/>
</svg>
