<svg width="128" height="26" viewBox="0 0 128 26" fill="none" xmlns="http://www.w3.org/2000/svg">
<g clip-path="url(#clip0_2133_329)">
<path fill-rule="evenodd" clip-rule="evenodd" d="M29.8471 7.42857V17.6366C29.8471 20.6084 30.7214 22.0767 33.0294 22.0767C35.7221 22.0767 36.8763 20.5732 36.8763 16.9029V7.42857H41.8237V25.5083H37.1202L37.1099 22.8106C35.8713 24.9962 33.5893 26 31.4907 26C26.2235 26 24.8997 23.0225 24.8997 18.5458V7.42857H29.8471ZM118.609 6.89958C124.289 6.89958 127.94 10.6567 127.94 16.4676C127.94 22.2431 124.289 26 118.609 26C112.963 26 109.311 22.2431 109.311 16.4676C109.311 10.6567 112.963 6.89958 118.609 6.89958ZM85.0782 6.78893C91.1667 6.78893 94.107 11.9377 93.7614 17.5174H80.8571C80.996 20.6653 82.5182 22.0992 85.2509 22.0992C87.2229 22.0992 88.8141 20.8751 89.1259 19.7563H93.4503C92.0662 24.0041 89.1259 25.8045 85.0782 25.8045C79.4388 25.8045 75.9445 21.9244 75.9445 16.3272C75.9445 10.8815 79.6467 6.78893 85.0782 6.78893ZM66.5765 6.8421C70.3963 6.8421 73.1429 8.62868 73.1429 13.3177V25.4135H68.2057V15.1703C68.2057 12.7584 67.9976 10.7656 65.1899 10.7656C62.4173 10.7656 61.8973 13.0731 61.8973 15.3453V25.4135H56.9602V15.149C56.9645 13.0821 57.0368 10.7656 53.979 10.7656C53.0081 10.7656 50.6516 11.395 50.6516 14.9256V25.4135H45.7143V7.33376H50.3733L50.3696 9.89798C51.6324 7.98571 53.598 6.8421 55.92 6.8421C58.1772 6.8421 60.1937 7.6829 61.1673 9.85458C62.2092 8.27855 64.0809 6.8421 66.5765 6.8421ZM107.266 6.8421C107.617 6.8421 108.037 6.9117 108.353 7.0155V11.6048C107.897 11.5002 107.161 11.4302 106.565 11.4302C102.92 11.4302 101.658 14.0523 101.658 17.2769V25.4135H96.6809V7.33864H101.413L101.411 10.79C102.347 8.4412 104.847 6.8421 107.266 6.8421ZM5.43008 0.390976L15.8959 17.2824L15.893 0.390976H21.0091V25.4135H15.544L5.11689 8.53601L5.1163 25.4135H0V0.390976H5.43008ZM118.609 10.6213C115.26 10.6213 114.249 13.5444 114.249 16.4676C114.249 19.3553 115.26 22.2787 118.609 22.2787C121.991 22.2787 123.003 19.3553 123.003 16.4676C123.003 13.5444 121.991 10.6213 118.609 10.6213ZM84.9395 10.4942C81.8262 10.4942 80.9267 12.9593 80.8571 14.3678H88.8489C88.3992 11.8321 87.3265 10.494 84.9397 10.494L84.9395 10.4942ZM91.0813 0.0901184L85.754 5.04185H82.3285L85.6499 0.0903139H91.0811L91.0813 0.0901184Z" fill="black"/>
</g>
<defs>
<clipPath id="clip0_2133_329">
<rect width="128" height="26" fill="white"/>
</clipPath>
</defs>
</svg>
