<svg width="24" height="24" viewBox="0 0 24 24" fill="none" xmlns="http://www.w3.org/2000/svg">
<path d="M17.9314 11.9946C17.9314 8.79065 12 0.856934 12 0.856934C12 0.856934 6.06857 8.79065 6.06857 11.9946C6.06835 12.7736 6.22163 13.5449 6.51965 14.2645C6.81767 14.9842 7.2546 15.638 7.80545 16.1887C8.3563 16.7394 9.01028 17.1761 9.73001 17.4739C10.4497 17.7718 11.2211 17.9248 12 17.9244C13.5728 17.9244 15.0812 17.2997 16.1935 16.1877C17.3059 15.0757 17.931 13.5675 17.9314 11.9946Z" stroke="black" stroke-width="2" stroke-linecap="round" stroke-linejoin="round"/>
<path d="M0.857147 17.9932C2.17873 19.6666 3.87679 21.0042 5.81309 21.8973C7.74939 22.7904 9.86921 23.2136 12 23.1326C14.1308 23.2134 16.2505 22.79 18.1868 21.8969C20.123 21.0039 21.8211 19.6664 23.1429 17.9932" stroke="black" stroke-width="2" stroke-linecap="round" stroke-linejoin="round"/>
</svg>
