<svg width="24" height="24" viewBox="0 0 24 24" fill="none" xmlns="http://www.w3.org/2000/svg">
<g clip-path="url(#clip0_4_735)">
<path d="M12.84 1.86871L15.5657 7.37157C15.6277 7.51124 15.7252 7.63222 15.8486 7.72246C15.9719 7.8127 16.1167 7.86903 16.2686 7.88586L22.2857 8.77728C22.4599 8.79968 22.6242 8.87118 22.7593 8.98344C22.8944 9.09569 22.9948 9.24407 23.0487 9.41125C23.1026 9.57842 23.1079 9.75749 23.0639 9.92754C23.0198 10.0976 22.9283 10.2516 22.8 10.3716L18.4629 14.6744C18.3522 14.7778 18.2691 14.9073 18.2212 15.051C18.1733 15.1947 18.1621 15.3481 18.1886 15.4973L19.2343 21.5487C19.2646 21.7226 19.2454 21.9015 19.1791 22.065C19.1127 22.2286 19.0017 22.3702 18.8588 22.4738C18.7159 22.5774 18.5468 22.6388 18.3708 22.651C18.1947 22.6633 18.0187 22.6258 17.8629 22.543L12.4457 19.6801C12.307 19.612 12.1545 19.5766 12 19.5766C11.8455 19.5766 11.693 19.612 11.5543 19.6801L6.13715 22.543C5.9813 22.6258 5.80532 22.6633 5.62925 22.651C5.45317 22.6388 5.28407 22.5774 5.14117 22.4738C4.99828 22.3702 4.88733 22.2286 4.82095 22.065C4.75458 21.9015 4.73544 21.7226 4.76572 21.5487L5.81143 15.4287C5.83794 15.2796 5.82673 15.1262 5.77882 14.9824C5.73092 14.8387 5.64784 14.7093 5.53715 14.6059L1.14858 10.3716C1.01874 10.2483 0.927433 10.09 0.885714 9.91594C0.843996 9.74184 0.853656 9.55937 0.913525 9.39065C0.973394 9.22193 1.0809 9.07419 1.22303 8.96532C1.36515 8.85646 1.5358 8.79114 1.71429 8.77728L7.73143 7.88586C7.88332 7.86903 8.02814 7.8127 8.15146 7.72246C8.27478 7.63222 8.3723 7.51124 8.43429 7.37157L11.16 1.86871C11.2342 1.70844 11.3528 1.57275 11.5016 1.47766C11.6504 1.38256 11.8234 1.33203 12 1.33203C12.1766 1.33203 12.3496 1.38256 12.4984 1.47766C12.6473 1.57275 12.7658 1.70844 12.84 1.86871Z" stroke="black" stroke-width="2" stroke-linecap="round" stroke-linejoin="round"/>
</g>
<defs>
<clipPath id="clip0_4_735">
<rect width="24" height="24" fill="white"/>
</clipPath>
</defs>
</svg>
