<svg width="174" height="24" viewBox="0 0 174 24" fill="none" xmlns="http://www.w3.org/2000/svg">
<path fill-rule="evenodd" clip-rule="evenodd" d="M98.5153 21.7557C99.3759 21.7557 100.147 21.1618 100.307 20.2722C100.472 19.347 100.559 18.3925 100.559 17.4167C100.559 8.95885 94.0414 2.10242 86.0012 2.10242C77.9611 2.10242 71.4432 8.95885 71.4432 17.4167C71.4432 18.3925 71.53 19.347 71.6959 20.2722C71.8553 21.1618 72.6266 21.7557 73.4871 21.7557H98.5153Z" fill="#F3F3F3"/>
<path d="M0.990723 20.7851V7.19767H13.2033V10.9342H5.47135V12.7782H12.8636V16.0133H5.47135V20.7851H0.990723Z" fill="white"/>
<path d="M14.5297 20.7851V7.19767H19.0103V20.7851H14.5297Z" fill="white"/>
<path d="M34.4559 20.7851H30.0562L28.2122 17.275H24.8153V20.7851H20.3347V7.19767H28.1151C31.884 7.19767 34.003 8.81522 34.003 12.39C34.003 14.2179 33.1781 15.5119 32.0296 16.3207L34.4559 20.7851ZM24.8153 10.918V13.9267H27.8078C28.9401 13.9267 29.5224 13.3767 29.5224 12.4224C29.5224 11.468 28.9401 10.918 27.8078 10.918H24.8153Z" fill="white"/>
<path d="M41.5191 21.2381C36.8282 21.2219 34.6121 19.7661 34.7254 16.2398H38.7531C38.8016 17.1618 39.578 17.728 41.5191 17.7441C43.2337 17.7603 44.0263 17.275 44.0263 16.6442C44.0263 16.2075 43.7837 15.7545 42.4573 15.5604L40.7103 15.2854C38.1384 14.8649 35.0489 14.5575 35.0489 11.0798C35.0489 8.39466 37.2326 6.74475 41.5514 6.74475C45.4497 6.74475 48.1672 7.82851 48.0864 11.7106H44.091C43.9292 10.8048 43.169 10.2387 41.4544 10.2387C39.9662 10.2387 39.3516 10.6916 39.3516 11.3063C39.3516 11.6945 39.5942 12.1636 40.6294 12.3253L42.0691 12.568C44.7704 13.0209 48.4746 13.1017 48.4746 16.8221C48.4746 19.7823 46.1776 21.2542 41.5191 21.2381Z" fill="white"/>
<path d="M63.1936 7.19767V10.9342H58.3086V20.7851H53.8279V10.9342H48.9429V7.19767H63.1936Z" fill="white"/>
<path d="M108.89 20.7851V7.19767H113.37V17.0486H120.617V20.7851H108.89Z" fill="white"/>
<path d="M121.936 20.7851V7.19767H126.416V20.7851H121.936Z" fill="white"/>
<path d="M142.364 13.2797V20.7851H139.97L139.905 18.9896C138.967 20.2837 137.268 21.2381 134.874 21.2381C130.701 21.2381 127.498 18.3426 127.498 13.9914C127.498 9.64018 130.539 6.74475 135.263 6.74475C138.481 6.74475 141.765 8.2976 142.299 11.9533H137.851C137.576 11.2739 136.686 10.6107 135.36 10.6107C133.354 10.6107 131.947 11.9371 131.947 13.9914C131.947 16.0457 133.386 17.3721 135.23 17.3721C135.893 17.3721 137.592 17.1942 138.045 15.609H135.052V13.2797H142.364Z" fill="white"/>
<path d="M153.517 7.19767H157.998V20.7851H153.517V15.8678H148.244V20.7851H143.763V7.19767H148.244V12.115H153.517V7.19767Z" fill="white"/>
<path d="M173.5 7.19767V10.9342H168.615V20.7851H164.134V10.9342H159.249V7.19767H173.5Z" fill="white"/>
</svg>
