<svg width="174" height="24" viewBox="0 0 174 24" fill="none" xmlns="http://www.w3.org/2000/svg">
<path fill-rule="evenodd" clip-rule="evenodd" d="M98.5153 21.7558C99.3758 21.7558 100.147 21.1618 100.307 20.2722C100.472 19.3471 100.559 18.3926 100.559 17.4167C100.559 8.95888 94.0413 2.10245 86.0011 2.10245C77.961 2.10245 71.4431 8.95888 71.4431 17.4167C71.4431 18.3926 71.5299 19.3471 71.6958 20.2722C71.8553 21.1618 72.6265 21.7558 73.487 21.7558H98.5153Z" fill="#FC7A1D"/>
<path d="M0.990601 20.7852V7.19773H13.2031V10.9343H5.47123V12.7783H12.8635V16.0134H5.47123V20.7852H0.990601Z" fill="black"/>
<path d="M14.5295 20.7852V7.19773H19.0102V20.7852H14.5295Z" fill="black"/>
<path d="M34.4558 20.7852H30.0561L28.212 17.2751H24.8152V20.7852H20.3345V7.19773H28.115C31.8839 7.19773 34.0029 8.81528 34.0029 12.3901C34.0029 14.2179 33.1779 15.512 32.0295 16.3207L34.4558 20.7852ZM24.8152 10.9181V13.9268H27.8077C28.9399 13.9268 29.5223 13.3768 29.5223 12.4224C29.5223 11.4681 28.9399 10.9181 27.8077 10.9181H24.8152Z" fill="black"/>
<path d="M41.519 21.2381C36.8281 21.2219 34.612 19.7661 34.7252 16.2399H38.7529C38.8015 17.1619 39.5779 17.728 41.519 17.7442C43.2336 17.7604 44.0262 17.2751 44.0262 16.6443C44.0262 16.2075 43.7835 15.7546 42.4571 15.5605L40.7102 15.2855C38.1383 14.8649 35.0487 14.5576 35.0487 11.0799C35.0487 8.39472 37.2324 6.74481 41.5513 6.74481C45.4496 6.74481 48.1671 7.82857 48.0862 11.7107H44.0909C43.9291 10.8049 43.1689 10.2387 41.4543 10.2387C39.9661 10.2387 39.3514 10.6916 39.3514 11.3063C39.3514 11.6945 39.5941 12.1636 40.6293 12.3254L42.0689 12.568C44.7703 13.0209 48.4745 13.1018 48.4745 16.8222C48.4745 19.7823 46.1775 21.2543 41.519 21.2381Z" fill="black"/>
<path d="M63.1935 7.19773V10.9343H58.3084V20.7852H53.8278V10.9343H48.9428V7.19773H63.1935Z" fill="black"/>
<path d="M108.89 20.7852V7.19773H113.37V17.0486H120.617V20.7852H108.89Z" fill="black"/>
<path d="M121.936 20.7852V7.19773H126.416V20.7852H121.936Z" fill="black"/>
<path d="M142.364 13.2797V20.7852H139.97L139.905 18.9897C138.967 20.2838 137.268 21.2381 134.874 21.2381C130.701 21.2381 127.498 18.3427 127.498 13.9915C127.498 9.64024 130.539 6.74481 135.262 6.74481C138.481 6.74481 141.765 8.29766 142.299 11.9533H137.851C137.576 11.274 136.686 10.6108 135.36 10.6108C133.354 10.6108 131.946 11.9372 131.946 13.9915C131.946 16.0458 133.386 17.3722 135.23 17.3722C135.893 17.3722 137.592 17.1942 138.045 15.609H135.052V13.2797H142.364Z" fill="black"/>
<path d="M153.517 7.19773H157.997V20.7852H153.517V15.8678H148.244V20.7852H143.763V7.19773H148.244V12.1151H153.517V7.19773Z" fill="black"/>
<path d="M173.5 7.19773V10.9343H168.615V20.7852H164.134V10.9343H159.249V7.19773H173.5Z" fill="black"/>
</svg>
